<?xml version="1.0" encoding="UTF-8" standalone="no"?>
<!DOCTYPE svg PUBLIC "-//W3C//DTD SVG 1.1//EN"
 "http://www.w3.org/Graphics/SVG/1.1/DTD/svg11.dtd">
<!-- Generated by graphviz version 12.2.1 (20241206.2353)
 -->
<!-- Pages: 1 -->
<svg width="197pt" height="203pt"
 viewBox="0.00 0.00 196.50 202.50" xmlns="http://www.w3.org/2000/svg" xmlns:xlink="http://www.w3.org/1999/xlink">
<g id="graph0" class="graph" transform="scale(1 1) rotate(0) translate(4 198.5)">
<polygon fill="#eeeeee" stroke="none" points="-4,4 -4,-198.5 192.5,-198.5 192.5,4 -4,4"/>
<!-- Nombre -->
<g id="node1" class="node">
<title>Nombre</title>
<g id="a_node1"><a xlink:href="http://Nombre_details.html" xlink:title="&lt;TABLE&gt;">
<polygon fill="#3f51b5" stroke="none" points="8,-171.75 8,-190.5 180.5,-190.5 180.5,-171.75 8,-171.75"/>
<polygon fill="none" stroke="black" points="8,-171.75 8,-190.5 180.5,-190.5 180.5,-171.75 8,-171.75"/>
<text text-anchor="start" x="72.88" y="-176.1" font-family="Roboto" font-size="12.00" fill="white">Nombre</text>
<polygon fill="#bbdefb" stroke="none" points="8,-153 8,-171.75 54.5,-171.75 54.5,-153 8,-153"/>
<polygon fill="none" stroke="black" points="8,-153 8,-171.75 54.5,-171.75 54.5,-153 8,-153"/>
<text text-anchor="start" x="26.38" y="-157.35" font-family="Roboto" font-size="12.00">id</text>
<polygon fill="#bbdefb" stroke="none" points="54.5,-153 54.5,-171.75 180.5,-171.75 180.5,-153 54.5,-153"/>
<polygon fill="none" stroke="black" points="54.5,-153 54.5,-171.75 180.5,-171.75 180.5,-153 54.5,-153"/>
<text text-anchor="start" x="77" y="-157.35" font-family="Roboto" font-size="12.00">INTEGER (PK)</text>
<polygon fill="#bbdefb" stroke="none" points="8,-134.25 8,-153 54.5,-153 54.5,-134.25 8,-134.25"/>
<polygon fill="none" stroke="black" points="8,-134.25 8,-153 54.5,-153 54.5,-134.25 8,-134.25"/>
<text text-anchor="start" x="11" y="-138.6" font-family="Roboto" font-size="12.00">nombre</text>
<polygon fill="#bbdefb" stroke="none" points="54.5,-134.25 54.5,-153 180.5,-153 180.5,-134.25 54.5,-134.25"/>
<polygon fill="none" stroke="black" points="54.5,-134.25 54.5,-153 180.5,-153 180.5,-134.25 54.5,-134.25"/>
<text text-anchor="start" x="57.5" y="-138.6" font-family="Roboto" font-size="12.00">VARCHAR(64) (Index)</text>
</a>
</g>
</g>
<!-- Comment -->
<g id="node2" class="node">
<title>Comment</title>
<g id="a_node2"><a xlink:href="http://Comment_details.html" xlink:title="&lt;TABLE&gt;">
<polygon fill="#3f51b5" stroke="none" points="11,-60.25 11,-79 177.5,-79 177.5,-60.25 11,-60.25"/>
<polygon fill="none" stroke="black" points="11,-60.25 11,-79 177.5,-79 177.5,-60.25 11,-60.25"/>
<text text-anchor="start" x="68.38" y="-64.6" font-family="Roboto" font-size="12.00" fill="white">Comment</text>
<polygon fill="#bbdefb" stroke="none" points="11,-41.5 11,-60.25 74,-60.25 74,-41.5 11,-41.5"/>
<polygon fill="none" stroke="black" points="11,-41.5 11,-60.25 74,-60.25 74,-41.5 11,-41.5"/>
<text text-anchor="start" x="37.62" y="-45.85" font-family="Roboto" font-size="12.00">id</text>
<polygon fill="#bbdefb" stroke="none" points="74,-41.5 74,-60.25 177.5,-60.25 177.5,-41.5 74,-41.5"/>
<polygon fill="none" stroke="black" points="74,-41.5 74,-60.25 177.5,-60.25 177.5,-41.5 74,-41.5"/>
<text text-anchor="start" x="85.25" y="-45.85" font-family="Roboto" font-size="12.00">INTEGER (PK)</text>
<polygon fill="#bbdefb" stroke="none" points="11,-22.75 11,-41.5 74,-41.5 74,-22.75 11,-22.75"/>
<polygon fill="none" stroke="black" points="11,-22.75 11,-41.5 74,-41.5 74,-22.75 11,-22.75"/>
<text text-anchor="start" x="23" y="-27.1" font-family="Roboto" font-size="12.00">content</text>
<polygon fill="#bbdefb" stroke="none" points="74,-22.75 74,-41.5 177.5,-41.5 177.5,-22.75 74,-22.75"/>
<polygon fill="none" stroke="black" points="74,-22.75 74,-41.5 177.5,-41.5 177.5,-22.75 74,-22.75"/>
<text text-anchor="start" x="77" y="-27.1" font-family="Roboto" font-size="12.00">VARCHAR(200) ()</text>
<polygon fill="#bbdefb" stroke="none" points="11,-4 11,-22.75 74,-22.75 74,-4 11,-4"/>
<polygon fill="none" stroke="black" points="11,-4 11,-22.75 74,-22.75 74,-4 11,-4"/>
<text text-anchor="start" x="14" y="-8.35" font-family="Roboto" font-size="12.00">nombre_id</text>
<polygon fill="#bbdefb" stroke="none" points="74,-4 74,-22.75 177.5,-22.75 177.5,-4 74,-4"/>
<polygon fill="none" stroke="black" points="74,-4 74,-22.75 177.5,-22.75 177.5,-4 74,-4"/>
<text text-anchor="start" x="93.5" y="-8.35" font-family="Roboto" font-size="12.00">INTEGER ()</text>
</a>
</g>
</g>
<!-- Nombre&#45;&gt;Comment -->
<g id="edge1" class="edge">
<title>Nombre&#45;&gt;Comment</title>
<g id="a_edge1"><a xlink:title="Relation between Nombre and Comment">
<path fill="none" stroke="#1e88e5" stroke-dasharray="5,2" d="M69.83,-130.52C66.4,-124.74 63.4,-118.53 61.5,-112.25 59.63,-106.09 59.63,-99.78 60.85,-93.59"/>
<polygon fill="#1e88e5" stroke="#1e88e5" points="64.17,-94.69 63.78,-84.1 57.48,-92.62 64.17,-94.69"/>
</a>
</g>
<text text-anchor="middle" x="84.38" y="-102.75" font-family="Roboto" font-size="10.00">comments</text>
</g>
<!-- Comment&#45;&gt;Nombre -->
<g id="edge2" class="edge">
<title>Comment&#45;&gt;Nombre</title>
<g id="a_edge2"><a xlink:title="Relation between Comment and Nombre">
<path fill="none" stroke="#1e88e5" stroke-dasharray="5,2" d="M106.16,-82.95C107.77,-92.53 108.49,-102.72 107.25,-112.25 106.95,-114.57 106.57,-116.94 106.13,-119.33"/>
<polygon fill="#1e88e5" stroke="#1e88e5" points="102.74,-118.44 104.05,-128.95 109.58,-119.92 102.74,-118.44"/>
</a>
</g>
<text text-anchor="middle" x="124" y="-102.75" font-family="Roboto" font-size="10.00">nombre</text>
</g>
</g>
</svg>
